<?xml version="1.0" encoding="UTF-8" standalone="no"?>
<!-- Created with Inkscape (http://www.inkscape.org/) -->

<svg
   version="1.1"
   id="svg1"
   width="981.9751"
   height="1008.817"
   viewBox="0 0 981.9751 1008.817"
   sodipodi:docname="rex_head_only.svg"
   inkscape:export-filename="rex_head_only_256x256.png"
   inkscape:export-xdpi="25.027111"
   inkscape:export-ydpi="25.027111"
   inkscape:version="1.4.2 (ebf0e94, 2025-05-08)"
   xmlns:inkscape="http://www.inkscape.org/namespaces/inkscape"
   xmlns:sodipodi="http://sodipodi.sourceforge.net/DTD/sodipodi-0.dtd"
   xmlns:xlink="http://www.w3.org/1999/xlink"
   xmlns="http://www.w3.org/2000/svg"
   xmlns:svg="http://www.w3.org/2000/svg">
  <defs
     id="defs1">
    <linearGradient
       id="linearGradient12"
       inkscape:collect="always">
      <stop
         style="stop-color:#fb3c00;stop-opacity:1;"
         offset="0"
         id="stop10" />
      <stop
         style="stop-color:#ef7f00;stop-opacity:0.97428572;"
         offset="0.28638539"
         id="stop11" />
      <stop
         style="stop-color:#b54100;stop-opacity:0.97254902;"
         offset="0.62706721"
         id="stop20" />
      <stop
         style="stop-color:#ef7b00;stop-opacity:1;"
         offset="0.96350813"
         id="stop12" />
    </linearGradient>
    <filter
       style="color-interpolation-filters:sRGB"
       inkscape:label="Blur"
       id="filter26"
       x="-1.0365131"
       y="-1.2796325"
       width="3.073082"
       height="3.559045">
      <feGaussianBlur
         stdDeviation="20 20"
         result="fbSourceGraphic"
         id="feGaussianBlur26" />
      <feColorMatrix
         result="fbSourceGraphicAlpha"
         in="fbSourceGraphic"
         values="0 0 0 -1 0 0 0 0 -1 0 0 0 0 -1 0 0 0 0 1 0"
         id="feColorMatrix30" />
      <feGaussianBlur
         id="feGaussianBlur30"
         stdDeviation="20 25"
         result="blur"
         in="fbSourceGraphic" />
    </filter>
    <linearGradient
       inkscape:collect="always"
       xlink:href="#linearGradient12"
       id="linearGradient2"
       gradientUnits="userSpaceOnUse"
       gradientTransform="matrix(0.15321134,0.75123839,0.93187843,-0.00953241,81.081341,-561.3894)"
       x1="1965.8431"
       y1="374.53192"
       x2="1901.7986"
       y2="958.09436" />
    <linearGradient
       inkscape:collect="always"
       xlink:href="#linearGradient12"
       id="linearGradient21"
       gradientUnits="userSpaceOnUse"
       gradientTransform="matrix(0.15321134,0.75123839,0.93187843,-0.00953241,81.081341,-561.3894)"
       x1="1965.8431"
       y1="374.53192"
       x2="1901.7986"
       y2="958.09436" />
    <linearGradient
       inkscape:collect="always"
       xlink:href="#linearGradient12"
       id="linearGradient2-7"
       gradientUnits="userSpaceOnUse"
       gradientTransform="matrix(0.15321134,0.75123839,0.93187843,-0.00953241,81.081341,-561.3894)"
       x1="1965.8431"
       y1="374.53192"
       x2="1901.7986"
       y2="958.09436" />
    <filter
       inkscape:collect="always"
       style="color-interpolation-filters:sRGB"
       id="filter90"
       x="-0.23022834"
       y="-0.1880179"
       width="1.4604663"
       height="1.3760359">
      <feGaussianBlur
         inkscape:collect="always"
         stdDeviation="51.714387"
         id="feGaussianBlur90" />
    </filter>
    <linearGradient
       inkscape:collect="always"
       xlink:href="#linearGradient12"
       id="linearGradient90"
       gradientUnits="userSpaceOnUse"
       gradientTransform="matrix(0.15321134,0.75123839,0.93187843,-0.00953241,81.081341,-561.3894)"
       x1="1965.8431"
       y1="374.53192"
       x2="1901.7986"
       y2="958.09436" />
    <linearGradient
       inkscape:collect="always"
       xlink:href="#linearGradient12"
       id="linearGradient91"
       gradientUnits="userSpaceOnUse"
       gradientTransform="matrix(0.15321134,0.75123839,0.93187843,-0.00953241,81.081341,-561.3894)"
       x1="1965.8431"
       y1="374.53192"
       x2="1901.7986"
       y2="958.09436" />
    <linearGradient
       inkscape:collect="always"
       xlink:href="#linearGradient12"
       id="linearGradient92"
       gradientUnits="userSpaceOnUse"
       gradientTransform="matrix(0.15321134,0.75123839,0.93187843,-0.00953241,81.081341,-561.3894)"
       x1="1965.8431"
       y1="374.53192"
       x2="1901.7986"
       y2="958.09436" />
    <linearGradient
       inkscape:collect="always"
       xlink:href="#linearGradient12"
       id="linearGradient93"
       gradientUnits="userSpaceOnUse"
       gradientTransform="matrix(0.15321134,0.75123839,0.93187843,-0.00953241,81.081341,-561.3894)"
       x1="1965.8431"
       y1="374.53192"
       x2="1901.7986"
       y2="958.09436" />
    <linearGradient
       inkscape:collect="always"
       xlink:href="#linearGradient12"
       id="linearGradient94"
       gradientUnits="userSpaceOnUse"
       gradientTransform="matrix(0.15321134,0.75123839,0.93187843,-0.00953241,81.081341,-561.3894)"
       x1="1965.8431"
       y1="374.53192"
       x2="1901.7986"
       y2="958.09436" />
  </defs>
  <sodipodi:namedview
     id="namedview1"
     pagecolor="#ffffff"
     bordercolor="#000000"
     borderopacity="0.25"
     inkscape:showpageshadow="false"
     inkscape:pageopacity="0.0"
     inkscape:pagecheckerboard="true"
     inkscape:deskcolor="#989898"
     inkscape:zoom="1.1074642"
     inkscape:cx="417.16924"
     inkscape:cy="483.98856"
     inkscape:window-width="1920"
     inkscape:window-height="1008"
     inkscape:window-x="0"
     inkscape:window-y="0"
     inkscape:window-maximized="1"
     inkscape:current-layer="layer2"
     labelstyle="default"
     inkscape:clip-to-page="false"
     inkscape:export-bgcolor="#ffffff00"
     showborder="false"
     inkscape:antialias-rendering="true"
     borderlayer="true">
    <inkscape:page
       x="0"
       y="0"
       width="981.9751"
       height="1008.817"
       id="page2"
       margin="0"
       bleed="0" />
  </sodipodi:namedview>
  <g
     inkscape:groupmode="layer"
     inkscape:label="LineArt"
     id="g1"
     transform="matrix(1.1057734,0,0,1.0634937,-323.87689,-35.22496)"
     style="display:inline">
    <path
       id="path21"
       d="m 305.70756,93.520233 -0.002,0.002 -0.002,0.002 h -0.002 l -0.002,0.002 v 0.002 0.002 c -0.11503,0.31008 3.34448,3.15495 7.78508,6.38999 61.51942,44.817777 101.45476,88.463857 125.02449,136.640967 15.75015,32.19368 17.54449,55.08511 4.91338,62.72531 -6.07767,3.67622 -23.53645,3.18184 -44.23342,-1.25244 -8.75593,-1.87597 -16.06403,-3.26344 -16.2427,-3.08476 -0.17867,0.17867 8.18326,7.67214 18.58452,16.654 22.0179,19.01326 81.90724,76.25284 82.10835,78.47518 0.0775,0.85647 -3.77596,2.21134 -8.86151,3.11626 -51.58754,9.17942 -105.22263,33.26618 -147.66829,66.31771 l -13.33209,10.38072 18.30661,-1.83789 c 22.42089,-2.88484 73.743,-0.60902 135.26626,5.56554 66.79111,9.54831 91.99329,21.18704 116.42421,44.83926 2.58902,2.76399 2.81539,3.07837 0.90042,4.20194 -0.80069,1.15016 -4.24886,2.64278 -10.23066,4.5484 -4.03334,1.28489 -9.13486,3.09386 -11.33487,4.01667 -2.2,0.92282 -6.99938,2.75516 -10.66604,4.07226 -19.50915,7.00784 -53.80973,27.44962 -75.98329,45.2839 -12.25467,9.85648 -35.39356,31.84878 -40.08891,38.10281 -1.42736,1.9012 -5.94383,7.89996 -10.03983,13.33209 -0.20459,0.27133 -0.40821,0.54126 -0.61139,0.81148 4.46252,-1.55317 8.92488,-3.10343 13.41546,-4.57433 6.2293,-1.92343 12.3383,-4.2035 18.61602,-5.96943 6.31681,-1.70525 12.68191,-3.40811 19.27187,-3.52571 4.92272,0.0256 9.84607,0.0596 14.76794,0.15934 5.9974,0.13634 12.00773,0.27251 17.97128,0.97823 5.08721,0.67951 10.08975,1.72006 15.08846,2.8754 6.89913,1.5679 13.79853,3.16732 20.60397,5.10607 5.95013,1.72745 48.96889,17.97186 68.96523,28.12782 3.59633,1.86813 7.71992,3.76633 9.35803,5.75451 -3.3605,4.58978 -22.15812,12.95828 -34.09725,17.5081 -17.07398,6.50664 -32.79594,10.75777 -47.57385,19.41639 -9.68832,5.67654 -18.50937,12.94858 -26.35108,20.98563 -4.95074,5.07406 -11.32703,12.2265 -12.83557,16.95784 3.69466,-3.05047 32.11495,-10.40953 48.78182,-12.15933 18.81308,-1.97513 37.86758,0.37632 56.71512,1.98981 15.11647,1.29409 30.27854,2.90234 45.09678,6.1584 19.48519,4.28155 30.90761,8.76644 57.23202,17.50625 16.61992,5.91834 28.56715,13.53242 43.25149,27.56089 12.98543,12.4053 25.77676,28.76515 25.77673,32.96895 0,3.8059 -9.50609,5.42562 -36.53171,6.22881 -23.47363,0.6975 -25.0134,0.89659 -22.52523,2.90319 9.62469,7.7616 32.16782,24.58131 50.38071,37.58961 33.8094,24.1476 44.74996,35.86522 44.91892,48.10743 0.0879,6.37249 -4.70699,12.172 -12.12968,14.6716 -5.34815,1.801 -19.45097,2.12201 -27.20147,0.61881 -4.99433,-0.9687 -5.05835,-0.93035 -3.47568,2.08985 3.00621,5.7368 21.84189,23.10952 33.33949,30.75126 18.35616,12.2001 38.45109,20.37146 63.26259,25.72116 14.15868,3.0527 46.83312,3.18753 60.13522,0.24826 28.06112,-6.20028 56.58327,-25.65679 75.73689,-51.66278 6.6385,-9.01351 12.0155,-18.49862 11.0403,-19.47382 -0.3118,-0.31179 -4.4019,0.33786 -9.0913,1.44326 -4.6893,1.10531 -10.50128,2.0179 -12.9152,2.02871 l -4.38907,0.0204 1.05605,-10.33255 c 2.47559,-24.23361 -0.23689,-48.8473 -6.75498,-61.28761 l -1.73413,-3.31079 -7.89625,6.6327 c -4.34162,3.64791 -9.65529,8.50844 -11.80916,10.79944 -2.15387,2.29111 -4.59399,4.16674 -5.42288,4.16674 -2.99681,0 -9.57988,-27.1665 -12.76331,-52.6688 -2.24004,-17.9449 -2.40129,-66.69546 -0.22788,-68.86889 1.25619,-1.25618 5.00218,0.7101 17.09679,8.96526 8.51931,5.81484 16.80891,11.47248 18.42148,12.57248 6.11781,4.17319 20.42594,15.44662 27.41084,21.59888 3.9963,3.52 7.7418,6.40111 8.3224,6.40111 1.2035,0 8.2401,5.27227 21.7452,16.29457 5.1333,4.1896 11.0306,8.98659 13.1061,10.66049 26.0453,21.0064 33.4549,34.4943 33.2913,60.60951 -0.099,15.8142 -1.3301,15.42343 15.6035,4.95043 28.6224,-17.7021 50.5928,-40.0088 64.1371,-65.119 18.3865,-34.0873 22.1949,-72.16857 9.9045,-99.01431 -5.995,-13.09479 -15.3629,-24.42958 -46.0453,-55.71651 -16.5408,-16.86666 -31.6353,-32.76633 -33.5433,-35.333 -3.243,-4.36244 -3.5164,-5.88327 -4.1908,-23.33301 -1.8317,-47.39734 -16.7427,-69.67954 -91.59611,-136.87812 -42.98067,-38.58531 -42.55088,-38.10421 -49.23202,-55.12179 -13.42164,-34.18656 -45.10405,-95.10318 -73.85268,-141.999 -10.54196,-17.19644 -29.83037,-46.62936 -31.89438,-48.6688 -1.96674,-1.94334 -0.23891,47.17826 2.31589,65.8397 2.8351,20.70927 7.48278,42.12766 15.36081,70.80682 6.71645,24.45056 7.43917,28.04143 5.63594,27.99443 -0.55,-0.0144 -6.04414,-7.6648 -12.2075,-17.00045 -49.318,-74.73075 -90.92659,-120.79858 -154.40474,-170.98093 l -6.94951,-5.49328 1.96943,6.6364 c 3.32168,11.1853 8.18205,23.36253 24.54654,61.50993 16.04271,37.39731 29.21385,71.23868 29.75079,76.43906 0.16432,1.59152 -0.42112,2.89395 -1.3006,2.89393 -0.87948,0 -15.27946,-12.31884 -31.99998,-27.37563 C 635.05118,236.13537 602.52442,211.5015 542.44482,177.63691 490.03456,148.09523 424.78878,122.08 361.11096,105.3331 344.4454,100.95015 306.39152,92.836263 305.70756,93.520233 Z m 114.69378,64.731777 c 1.84892,0 40.1084,18.31912 48.59099,23.26632 56.76244,33.10488 87.30948,55.88534 125.8193,93.83043 27.14639,26.7483 57.50107,62.26377 72.56319,84.90223 3.41538,5.13333 6.70309,9.9327 7.30523,10.66604 6.24908,7.61064 25.40277,44.62238 27.04398,52.25565 0.18768,0.87292 1.0441,3.71054 1.90088,6.30662 0.85678,2.59607 1.17909,5.33106 0.717,6.07873 -1.30798,2.11635 -1.89141,1.83574 -15.34969,-7.41268 -6.96667,-4.78744 -20.46758,-13.54888 -30.00091,-19.46826 -9.53333,-5.91938 -19.43239,-12.09024 -21.99906,-13.71375 -11.39765,-7.20945 -17.56223,-10.75895 -31.99999,-18.42334 -5.5,-2.91972 -11.49876,-6.30392 -13.33209,-7.522 -4.22666,-2.80821 -34.24552,-17.31333 -48.6688,-23.51643 -11.19511,-4.81475 -13.79876,-5.88841 -19.33116,-7.97406 -11.65329,-4.39315 -47.77921,-16.517 -50.90503,-17.08382 -5.26161,-0.95411 -13.09494,-4.6312 -13.09494,-6.14544 0,-0.78153 1.77506,-2.49989 3.94627,-3.82028 12.63845,-7.6859 18.20592,-25.62927 14.22509,-45.84342 -2.5273,-12.83331 -13.2111,-39.92497 -18.5382,-47.00878 -0.56801,-0.75532 -4.26573,-6.7747 -8.21676,-13.3747 -3.95102,-6.6 -12.93753,-19.0159 -19.9685,-27.59239 -7.03097,-8.57649 -12.78183,-16.22695 -12.78183,-17.00046 0,-0.77351 0.93281,-1.40621 2.07503,-1.40621 z m 372.05169,230.79007 c 1.69359,0.002 6.40121,3.68556 16.96155,12.93191 56.42712,49.40608 83.99036,68.27787 99.72575,68.27787 10.59223,0 14.51967,-6.16201 14.51967,-22.78647 0,-4.98062 0.47605,-9.353 1.05975,-9.71375 1.53183,-0.94673 68.07229,57.61594 91.41455,80.45388 30.1348,29.48379 42.0734,47.01221 46.9513,68.93743 2.1586,9.70239 2.3268,29.79914 0.2668,31.85918 -0.5298,0.52981 -4.9577,-2.57059 -9.8397,-6.89208 -15.9772,-14.143 -31.6484,-27.1769 -32.1167,-26.70864 -0.2525,0.25251 0.2271,3.65814 1.0653,7.56646 3.046,14.20322 -0.1306,27.11103 -8.5707,34.8198 -2.2872,2.08906 -5.077,3.7962 -6.1991,3.7962 -1.1222,0 -10.07345,-9.65984 -19.89258,-21.46548 -35.98063,-43.2599 -68.97053,-76.57473 -112.09072,-113.2005 -46.94258,-39.87247 -56.90372,-49.92844 -68.56875,-69.2246 -5.28052,-8.73497 -15.47938,-33.44241 -15.47938,-37.49697 0,-0.74726 0.22843,-1.15506 0.79296,-1.15424 z m -248.9429,7.08105 c 1.93765,-0.0505 7.24279,1.97309 21.34135,7.6239 90.10565,36.115 162.05014,83.85548 190.527,126.42884 8.01508,11.98268 13.76303,24.57058 14.18248,31.05139 0.19882,3.07192 -0.25284,3.34564 -5.7823,3.49606 -6.75969,0.18389 -8.87187,-0.0467 -26.66789,-2.92913 -51.87396,-8.40185 -105.93038,-46.25832 -156.90404,-109.87859 -12.01877,-15.00064 -37.76191,-52.21047 -37.76191,-54.58265 0,-0.73366 0.18455,-1.18687 1.06531,-1.20982 z m 324.70201,137.28386 c 0.72215,0.0146 1.73688,0.17973 3.15887,0.4465 10.08942,1.89279 38.85548,19.67291 52.5354,32.47057 4.45007,4.16307 11.28227,11.47047 15.1811,16.23714 9.02407,11.03238 20.93377,30.40632 20.40573,33.19498 -0.22551,1.19075 -1.87531,2.24759 -3.7258,2.38629 -6.56509,0.49207 -27.87149,-4.7781 -39.48307,-9.76562 -10.36679,-4.45276 -13.25085,-6.49869 -23.17368,-16.4502 -7.6969,-7.71915 -12.92488,-14.38859 -16.29457,-20.7874 -4.66553,-8.8595 -10.3414,-28.06454 -10.3622,-35.06065 -0.006,-1.9996 0.1695,-2.70378 1.75822,-2.67161 z m -323.45329,44.54467 c 1.6502,-1.6502 45.02792,0.58777 72.62248,3.74618 43.68603,5.00021 83.11483,16.32398 108.08887,31.04399 11.84399,6.981 25.76666,18.95638 24.47243,21.05047 -0.48535,0.78532 -9.13905,1.78305 -19.90365,2.29366 -31.30321,1.48486 -43.71281,2.49988 -43.71281,3.57758 0,0.5609 14.24984,13.89281 31.6665,29.62666 38.37563,34.66772 80.20359,75.9719 98.8698,97.62848 18.56865,21.54341 42.06789,53.07222 57.46361,77.10233 24.19994,37.77202 38.60923,58.95121 46.65861,68.57801 8.41152,10.0599 20.20459,20.16492 27.67576,23.71652 2.38333,1.133 4.33164,2.66578 4.33164,3.40528 0,2.0951 -13.47449,7.75055 -23.55349,9.88605 -9.93691,2.1054 -36.7252,2.39947 -47.92401,0.52617 -12.28943,-2.0557 -39.1885,-11.51079 -39.1885,-13.77489 0,-0.2781 2.04587,-3.54662 4.54655,-7.26262 7.30906,-10.8612 8.88057,-21.90625 5.55813,-39.06065 -7.76596,-40.09729 -40.6831,-95.51373 -77.25981,-130.07127 -20.63811,-19.49881 -42.72546,-32.32266 -68.17968,-39.58312 -22.30015,-6.3608 -59.88422,-12.79665 -74.73456,-12.79665 -3.89408,0 -5.93052,-0.57867 -5.93052,-1.68597 0,-2.12993 19.12817,-14.2256 30.97729,-19.58869 4.93831,-2.23515 13.81907,-5.46257 19.7332,-7.16998 5.91414,-1.70742 10.7322,-3.65401 10.7068,-4.32793 -0.0254,-0.67392 -15.80581,-10.70929 -35.06621,-22.2992 C 596.92972,618.96606 541.82,580.89051 544.75885,577.95166 Z m 499.15865,59.40711 c 0.1757,-0.0107 0.3474,0.0195 0.5187,0.0852 1.0684,0.41001 6.5817,4.27558 12.2501,8.59286 5.6684,4.31728 19.9055,14.92251 31.6388,23.56646 24.4421,18.00651 51.0146,43.53032 57.5877,55.31447 7.9101,14.18119 10.5847,27.0625 8.4261,40.57432 -3.4345,21.49902 -14.9187,42.10149 -35.1718,63.09214 -11.7376,12.16501 -15.4798,14.57271 -15.5368,9.99907 -0.049,-3.93619 -5.1552,-13.89048 -11.0236,-21.49698 -7.3671,-9.54913 -18.9497,-19.09719 -67.6146,-55.73318 -61.21582,-46.08449 -92.73098,-66.06795 -132.09262,-83.76281 -17.14147,-7.70587 -43.64565,-17.1345 -58.23989,-20.71699 -3.11666,-0.76505 -5.66744,-1.94233 -5.66744,-2.61417 0,-2.35963 10.24203,-3.29456 35.99998,-3.28856 26.44505,0.006 38.27458,1.25016 57.99905,6.10467 35.69539,8.78521 68.1267,24.62369 100.91892,49.28391 5.7722,4.34082 10.7748,7.89253 11.1199,7.89253 0.345,0 0.6307,-2.55076 0.6207,-5.66743 -0.012,-7.45207 -4.3336,-25.15664 -8.352,-34.21953 l -3.2015,-7.21815 6.1399,-8.11301 c 3.3775,-4.46297 7.5186,-11.31493 9.2005,-15.22556 1.8878,-4.38952 3.2503,-6.37438 4.4799,-6.44928 z m -189.25051,57.27278 c 1.67943,-0.0171 4.30451,0.56052 7.94997,1.63038 4.60679,1.35198 13.02035,4.56134 18.69568,7.13293 l 10.31774,4.67624 5.01343,10.68457 c 2.758,5.87721 5.02446,11.01805 5.03566,11.4238 0.0112,0.40576 0.43429,1.38929 0.94117,2.18434 0.50689,0.79505 1.2738,3.49412 1.7045,5.99907 0.43069,2.50495 1.42013,6.95642 2.19916,9.88976 1.32921,5.00496 2.01581,9.06604 3.15146,18.66604 0.87009,7.35528 0.79774,42.10018 -0.10005,48.08706 -1.14088,7.60796 -4.01731,7.72767 -5.93237,0.24641 -0.7978,-3.11666 -1.77358,-6.56836 -2.16952,-7.66836 -0.39593,-1.1 -0.98001,-3.36425 -1.29875,-5.03196 -0.78518,-4.10815 -7.27119,-24.63584 -8.3094,-26.2992 -0.45772,-0.73334 -0.89251,-1.63427 -0.96711,-2.00093 -0.0746,-0.36667 -0.59143,-1.86635 -1.14683,-3.33302 -0.55541,-1.46666 -1.64266,-4.46604 -2.41779,-6.66604 -1.54953,-4.39792 -19.67906,-41.61944 -23.37933,-47.99998 -1.27584,-2.2 -4.64778,-7.48977 -7.49235,-11.75173 -4.61456,-6.91391 -5.49002,-9.83168 -1.79527,-9.86938 z m 78.8661,149.36908 c 2.38429,0.0918 2.91271,3.27117 3.1848,9.99906 0.46502,11.49836 -2.41121,24.10148 -7.13107,31.25149 -1.81531,2.75 -4.14232,5.00047 -5.17276,5.00047 -2.85586,0 -22.088,-21.5407 -22.088,-24.73922 0,-1.88026 1.81904,-3.77279 5.66559,-5.89162 3.11667,-1.71676 9.7591,-6.06419 14.75867,-9.66002 5.2946,-3.80802 8.53391,-5.87251 10.54562,-5.95831 0.0808,-0.003 0.16023,-0.005 0.23715,-0.002 z m 39.95366,31.63314 c 1.88717,0.0626 1.58568,3.46008 0.11487,10.61788 -2.61601,12.7312 -4.01666,17.3545 -7.17184,23.6665 -1.71409,3.429 -3.74257,5.65323 -5.13571,5.63223 -4.74862,-0.0708 -26.96802,-13.30548 -26.96802,-16.06298 0,-0.7163 1.52864,-1.88495 3.39786,-2.59565 9.76425,-3.7124 18.97094,-8.95022 25.9861,-14.78832 5.14698,-4.28336 8.21308,-6.52146 9.77674,-6.46966 z" />
    <path
       d="m 1076.8863,693.67568 c -0.7517,-0.0133 -1.3361,0.1506 -1.7011,0.51563 -0.7341,0.73412 -1.5907,6.29723 -1.9043,12.36328 l -0.5703,11.0293 18.4746,13.63281 c 10.1609,7.49809 18.6603,13.64937 18.8886,13.66797 0.9733,0.0792 -1.6708,-13.2161 -3.9492,-19.85938 -3.4462,-10.04773 -8.0545,-17.49163 -14.3613,-23.18945 -5.2263,-4.72165 -11.6195,-8.10242 -14.877,-8.16016 z"
       id="path34"
       style="display:inline"
       sodipodi:insensitive="true" />
  </g>
  <g
     inkscape:groupmode="layer"
     id="layer2"
     inkscape:label="BaseColor"
     style="display:inline"
     transform="matrix(1.1057734,0,0,1.0634937,-312.56318,-46.538668)">
    <path
       d="m 918.81193,960.44445 c 10.079,-2.13553 23.5536,-7.79143 23.5536,-9.88651 0,-0.7395 -1.95,-2.27152 -4.3333,-3.40448 -7.4712,-3.55159 -19.2632,-13.65737 -27.6747,-23.71725 -8.0494,-9.62676 -22.4587,-30.80493 -46.65862,-68.57693 -15.39572,-24.03011 -38.89456,-55.56091 -57.46321,-77.10432 -18.66621,-21.65658 -60.49449,-62.9587 -98.87013,-97.62643 -17.41666,-15.73385 -31.66666,-29.06591 -31.66666,-29.62681 0,-1.0777 12.4089,-2.09353 43.71212,-3.57839 10.7646,-0.51061 19.41881,-1.50753 19.90416,-2.29285 1.29423,-2.09409 -12.62795,-14.07019 -24.47194,-21.05119 -24.97405,-14.72001 -64.40424,-26.04496 -108.09027,-31.04517 -27.59456,-3.15841 -70.97111,-5.39544 -72.62131,-3.74524 -2.93885,2.93885 52.17192,41.01417 107.91948,74.56018 19.2604,11.58991 35.03967,21.62395 35.06505,22.29787 0.0254,0.67392 -4.7927,2.62228 -10.70684,4.3297 -5.91413,1.70741 -14.7934,4.93315 -19.73171,7.1683 -11.84912,5.36309 -30.97874,17.46006 -30.97874,19.58999 0,1.1073 2.03763,1.68671 5.93171,1.68671 14.85034,0 52.43481,6.43511 74.73496,12.79591 25.45423,7.26046 47.541,20.08311 68.17911,39.58192 36.57671,34.55754 69.49332,89.97555 77.25928,130.07279 3.32244,17.15441 1.75068,28.19979 -5.55838,39.06101 -2.50068,3.71598 -4.54668,6.98384 -4.54668,7.26191 0,2.26407 26.90076,11.71984 39.19019,13.77558 11.19881,1.87331 37.98593,1.57912 47.92283,-0.5263 z M 1108.5403,839.42163 c 20.2531,-20.99065 31.7387,-41.59298 35.1732,-63.092 2.1586,-13.51182 -0.5169,-26.39347 -8.427,-40.57466 -6.5731,-11.78415 -33.1456,-37.30755 -57.5877,-55.31406 -11.7333,-8.64395 -25.9711,-19.2486 -31.6395,-23.56588 -5.6684,-4.31728 -11.1804,-8.18506 -12.2488,-8.59507 -1.3707,-0.52596 -2.8431,1.34817 -5.0006,6.36477 -1.6819,3.91063 -5.8213,10.76174 -9.1988,15.22471 l -6.1407,8.11447 3.2008,7.21886 c 4.0184,9.06289 8.3393,26.76679 8.3516,34.21886 0.01,3.11667 -0.273,5.66667 -0.618,5.66667 -0.3451,0 -5.3502,-3.55159 -11.1224,-7.89241 -32.79207,-24.66023 -65.22147,-40.49693 -100.91687,-49.28214 -19.7244,-4.85451 -31.5549,-6.09999 -57.99995,-6.10605 -25.75795,-0.006 -36,0.92999 -36,3.28962 0,0.67184 2.55,1.84748 5.66666,2.61253 14.59424,3.58249 41.09945,13.01037 58.24092,20.71625 39.36167,17.69486 70.87677,37.67963 132.09234,83.76412 48.6649,36.63599 60.2483,46.18379 67.6154,55.73292 5.8684,7.6065 10.9726,17.5623 11.022,21.49849 0.057,4.57364 3.7998,2.16501 15.5374,-10 z m -27.9825,-97.3671 -18.4745,-13.6329 0.5703,-11.02917 c 0.3136,-6.06605 1.1709,-11.62983 1.905,-12.36395 1.9468,-1.94682 10.1447,1.83397 16.5771,7.64524 6.3068,5.69782 10.9165,13.14003 14.3627,23.18776 2.2784,6.64328 4.9221,19.93888 3.9488,19.85968 -0.2283,-0.0186 -8.7285,-6.16857 -18.8894,-13.66666 z m -77.2947,-103.4312 c 8.4401,-7.70877 11.6171,-20.61491 8.5711,-34.81813 -0.8382,-3.90832 -1.3174,-7.31263 -1.0649,-7.56513 0.4683,-0.46827 16.1393,12.56249 32.1165,26.70549 4.882,4.32149 9.3098,7.42377 9.8396,6.89396 2.06,-2.06004 1.8917,-22.15703 -0.2669,-31.85942 -4.8779,-21.92522 -16.8167,-39.45495 -46.9515,-68.93874 -23.34207,-22.83794 -89.88167,-81.39831 -91.41347,-80.45158 -0.5837,0.36075 -1.0613,4.73096 -1.0613,9.71158 0,16.62445 -3.9264,22.78694 -14.5187,22.78694 -15.73534,0 -43.29879,-18.87132 -99.72591,-68.27741 -14.08046,-12.32847 -17.75537,-14.76601 -17.75537,-11.77698 0,4.05456 10.20122,28.76214 15.48174,37.49711 11.66503,19.29616 21.62501,29.35148 68.56759,69.22395 43.12015,36.62577 76.10905,69.94196 112.08965,113.20186 9.8192,11.80564 18.7711,21.4648 19.8932,21.4648 1.1221,0 3.91147,-1.70924 6.19867,-3.7983 z M 758.81651,571.75497 c -0.41945,-6.48081 -6.16945,-19.06778 -14.18453,-31.05046 -28.47686,-42.57336 -100.42189,-90.31426 -190.52754,-126.42927 -20.507,-8.21936 -22.40552,-8.76295 -22.40552,-6.41524 0,2.37218 25.74305,39.58312 37.76182,54.58376 50.97366,63.62027 105.03087,101.47546 156.90484,109.87731 17.79602,2.88236 19.907,3.11434 26.66667,2.93045 5.52946,-0.15042 5.98308,-0.42463 5.78426,-3.49655 z"
       style="display:inline;fill:#333333;fill-opacity:1;stroke:#000000;stroke-width:3.30497;stroke-dasharray:none;stroke-opacity:1"
       id="path1-2" />
  </g>
  <g
     inkscape:groupmode="layer"
     id="layer3"
     inkscape:label="RedColor"
     style="display:inline"
     transform="matrix(1.1057734,0,0,1.0634937,-312.56318,-46.538668)">
    <path
       d="m 1046.7559,828.53711 c -0.7381,0.007 -2.5281,6.18185 -3.2129,7.71875 -4.9964,11.2108 -4.2667,9.25194 -9.7227,15.93359 -7.5397,9.23306 -7.0824,10.14278 5.9492,7.86133 12.6756,-2.21914 17.2043,-3.38392 23.1739,-5.96875 3.243,-1.40425 5.1917,-3.04726 4.9336,-4.16016 -0.8772,-3.79309 -18.2798,-21.41276 -21.1211,-21.38476 z"
       style="display:inline;fill:url(#linearGradient90);stroke:#000000;stroke-width:6.508;stroke-dasharray:none"
       id="path14" />
    <path
       d="m 1006.4015,792.1224 c -0.07,-0.002 -0.1347,0.003 -0.1933,0.0117 -0.9737,0.15304 -3.034,2.12717 -2.1817,4.34961 4.164,10.85497 -1.632,22.6158 -9.83195,32.17187 -11.33053,13.20487 -7.17996,15.95545 9.55075,10.15821 16.2739,-5.63893 22.0065,-8.19002 29.3398,-13.06055 3.984,-2.64598 6.2071,-5.38452 5.627,-6.93555 -1.9431,-5.20439 -27.9232,-26.5898 -32.3106,-26.69531 z"
       style="display:inline;fill:url(#linearGradient21);stroke:#000000;stroke-width:6.508;stroke-dasharray:none"
       id="path13" />
    <path
       style="display:inline;fill:url(#linearGradient91);stroke:#000000;stroke-width:0.908285"
       d="m 963.10352,886.66016 c -1.56367,-0.0518 -4.62839,2.1854 -9.7754,6.46875 -7.0152,5.8381 -16.22202,11.07861 -25.98632,14.79101 -1.8692,0.7106 -3.39844,1.87745 -3.39844,2.59375 0,2.7575 22.22015,15.9918 26.96875,16.0625 1.3932,0.021 3.42066,-2.20381 5.13476,-5.63281 3.15521,-6.312 4.55588,-10.93482 7.17188,-23.66602 1.47082,-7.15788 1.77195,-10.55462 -0.11523,-10.61718 z"
       id="path63" />
    <path
       style="display:inline;fill:url(#linearGradient92);stroke:#000000;stroke-width:0.908285"
       d="m 922.91406,855.02734 c -2.01171,0.0858 -5.25225,2.1529 -10.54687,5.96094 -4.9995,3.5958 -11.64111,7.9414 -14.75782,9.6582 -3.8465,2.1188 -5.66601,4.01238 -5.66601,5.89258 0,3.1985 19.23199,24.73828 22.08789,24.73828 1.0304,0 3.36048,-2.25 5.17578,-5 4.7199,-7.15 7.59391,-19.75355 7.12891,-31.25195 -0.28092,-6.94491 -0.83539,-10.10837 -3.42188,-9.99805 z"
       id="path62" />
    <path
       style="display:inline;fill:url(#linearGradient93);stroke:#000000;stroke-width:0.908285"
       d="m 844.28516,705.65625 c -3.69478,0.0377 -2.81965,2.95913 1.79492,9.87305 2.8446,4.26196 6.21639,9.54804 7.49219,11.74804 3.7003,6.38054 21.8293,43.6021 23.3789,48 0.7751,2.2 1.86452,5.19932 2.41992,6.66602 0.5554,1.4667 1.06993,2.96738 1.14453,3.33398 0.075,0.3667 0.5091,1.2667 0.9668,2 1.0382,1.6634 7.52535,22.19258 8.31055,26.30078 0.3188,1.6677 0.90293,3.93321 1.29883,5.03321 0.396,1.1 1.37212,4.54931 2.16992,7.66601 1.915,7.4813 4.79074,7.36181 5.93164,-0.24609 0.8978,-5.9869 0.97146,-40.73259 0.10156,-48.08789 -1.1357,-9.6 -1.82109,-13.66102 -3.15039,-18.66602 -0.779,-2.9333 -1.77057,-7.38367 -2.20117,-9.88867 -0.4307,-2.5049 -1.19633,-5.2049 -1.70313,-6 -0.5069,-0.795 -0.93205,-1.77594 -0.94336,-2.18164 -0.011,-0.4058 -2.27715,-5.54662 -5.03515,-11.42383 l -5.01367,-10.68554 -10.31836,-4.67579 c -5.6753,-2.57159 -14.08852,-5.78278 -18.69532,-7.13476 -3.64546,-1.06986 -6.26977,-1.64798 -7.94921,-1.63086 z"
       id="path60" />
    <path
       style="display:inline;fill:url(#linearGradient94);stroke:#000000;stroke-width:0.908285"
       d="m 857.71094,544.12305 c 0.72214,0.0146 1.7362,0.18245 3.1582,0.44922 10.0894,1.89279 38.85721,19.67109 52.53711,32.46875 4.45,4.16307 11.28079,11.46965 15.17969,16.23632 9.0241,11.03238 20.93435,30.40666 20.40625,33.19532 -0.2255,1.19075 -1.87607,2.24802 -3.72657,2.38671 -6.56509,0.49207 -27.87092,-4.77622 -39.48242,-9.76367 -10.3668,-4.45278 -13.25092,-6.50161 -23.17383,-16.45312 -7.69689,-7.71915 -12.92522,-14.3883 -16.29492,-20.78711 -4.6656,-8.8595 -10.34033,-28.06444 -10.36133,-35.06055 -0.006,-1.99961 0.16911,-2.70393 1.75782,-2.67187 z"
       id="path58" />
    <path
       style="display:inline;fill:url(#linearGradient2);stroke:#000000;stroke-width:0.908285"
       d="m 410.01953,169.27734 c -1.1422,0 -2.07617,0.63274 -2.07617,1.40625 0,0.77351 5.7523,8.42351 12.7832,17 7.031,8.57649 16.0158,20.99375 19.9668,27.59375 3.951,6.6 7.6488,12.61773 8.2168,13.37305 5.3271,7.08381 16.01176,34.17841 18.53906,47.01172 3.9809,20.21415 -1.58621,38.1559 -14.22461,45.8418 -2.1712,1.32039 -3.94727,3.04073 -3.94727,3.82226 0,1.51424 7.83411,5.19042 13.09571,6.14453 3.1258,0.56682 39.25099,12.68888 50.90429,17.08203 5.5324,2.08565 8.13693,3.16182 19.33203,7.97657 14.42331,6.2031 44.44127,20.70546 48.66797,23.51367 1.8333,1.21808 7.83203,4.60372 13.33203,7.52344 14.43781,7.66439 20.6024,11.21437 32,18.42382 2.5667,1.62351 12.4667,7.79351 22,13.71289 9.53341,5.91938 23.03341,14.68131 30,19.46875 13.4583,9.24842 14.04161,9.52846 15.34961,7.41211 0.4621,-0.74767 0.14001,-3.48205 -0.71679,-6.07812 -0.8567,-2.59608 -1.71074,-5.43567 -1.89844,-6.30859 -1.6412,-7.63327 -20.79777,-44.64327 -27.04688,-52.25391 -0.60209,-0.73334 -3.88928,-5.53269 -7.30468,-10.66602 -15.0621,-22.63846 -45.4161,-58.15404 -72.5625,-84.90234 -38.5098,-37.94509 -69.05781,-60.7252 -125.82032,-93.83008 -8.4825,-4.9472 -46.74094,-23.26758 -48.58984,-23.26758 z"
       id="path2" />
    <path
       id="path2-7"
       style="display:inline;opacity:0.94432;fill:url(#linearGradient2-7);stroke:#000000;stroke-width:0.908285;filter:url(#filter90)"
       d="m 409.3096,168.32885 c -1.1422,0 -2.07617,0.63274 -2.07617,1.40625 0,0.77351 5.7523,8.42351 12.7832,17 7.031,8.57649 16.0158,20.99375 19.9668,27.59375 3.951,6.6 7.6488,12.61773 8.2168,13.37305 5.3271,7.08381 16.01176,34.17841 18.53906,47.01172 3.9809,20.21415 -1.58621,38.1559 -14.22461,45.8418 -2.1712,1.32039 -3.94727,3.04073 -3.94727,3.82226 0,1.51424 7.83411,5.19042 13.09571,6.14453 3.1258,0.56682 39.25099,12.68888 50.90429,17.08203 5.5324,2.08565 8.13693,3.16182 19.33203,7.97657 14.42331,6.2031 44.44127,20.70546 48.66797,23.51367 1.8333,1.21808 7.83203,4.60372 13.33203,7.52344 14.43781,7.66439 20.6024,11.21437 32,18.42382 2.5667,1.62351 12.4667,7.79351 22,13.71289 9.53341,5.91938 23.03341,14.68131 29.99997,19.46875 13.4583,9.24842 14.0416,9.52846 15.3496,7.41211 0.4621,-0.74767 0.14,-3.48205 -0.7168,-6.07812 -0.8567,-2.59608 -1.7107,-5.43567 -1.8984,-6.30859 -1.6412,-7.63327 -20.79776,-44.64327 -27.04687,-52.25391 -0.60209,-0.73334 -3.88928,-5.53269 -7.30468,-10.66602 -15.0621,-22.63846 -45.4161,-58.15404 -72.5625,-84.90234 -38.5098,-37.94509 -69.05781,-60.7252 -125.82032,-93.83008 -8.4825,-4.9472 -46.74094,-23.26758 -48.58984,-23.26758 z m 447.69141,374.84571 c 0.7221,0.0146 1.7362,0.18245 3.1582,0.44922 10.0894,1.89279 38.8572,19.67109 52.5371,32.46875 4.45,4.16307 11.2808,11.46965 15.1797,16.23632 9.0241,11.03238 20.9343,30.40666 20.4062,33.19532 -0.2255,1.19075 -1.876,2.24802 -3.7265,2.38671 -6.5651,0.49207 -27.8709,-4.77622 -39.4824,-9.76367 -10.3668,-4.45278 -13.251,-6.50161 -23.1739,-16.45312 -7.6969,-7.71915 -12.9252,-14.3883 -16.2949,-20.78711 -4.6656,-8.8595 -10.3403,-28.06444 -10.3613,-35.06055 -0.01,-1.99961 0.1691,-2.70393 1.7578,-2.67187 z m -13.4258,161.5332 c -3.6948,0.0377 -2.8196,2.95913 1.7949,9.87305 2.8446,4.26196 6.2164,9.54804 7.4922,11.74804 3.7003,6.38054 21.8293,43.6021 23.3789,48 0.7751,2.2 1.8645,5.19932 2.4199,6.66602 0.5554,1.4667 1.07,2.96738 1.1446,3.33398 0.075,0.3667 0.5091,1.2667 0.9668,2 1.0382,1.6634 7.5253,22.19258 8.3105,26.30078 0.3188,1.6677 0.903,3.93321 1.2989,5.03321 0.396,1.1 1.3721,4.54931 2.1699,7.66601 1.915,7.4813 4.7907,7.36181 5.9316,-0.24609 0.8978,-5.9869 0.9715,-40.73259 0.1016,-48.08789 -1.1357,-9.6 -1.8211,-13.66102 -3.1504,-18.66602 -0.779,-2.9333 -1.7706,-7.38367 -2.2012,-9.88867 -0.4307,-2.5049 -1.1963,-5.2049 -1.7031,-6 -0.5069,-0.795 -0.9321,-1.77594 -0.9434,-2.18164 -0.011,-0.4058 -2.2771,-5.54662 -5.0351,-11.42383 l -5.0137,-10.68554 -10.3184,-4.67579 c -5.6753,-2.57159 -14.0885,-5.78278 -18.6953,-7.13476 -3.6454,-1.06986 -6.2697,-1.64798 -7.9492,-1.63086 z" />
    <path
       d="m 949.03458,626.93967 c 0.5281,-2.78866 -11.3817,-22.16336 -20.4058,-33.19574 -3.8989,-4.76667 -10.73,-12.07281 -15.18,-16.23588 -13.6799,-12.79766 -42.4478,-30.57738 -52.5372,-32.47017 -4.5504,-0.85366 -4.9249,-0.68419 -4.9163,2.22433 0.021,6.99611 5.6967,26.20026 10.3623,35.05976 3.3697,6.39881 8.5981,13.0689 16.295,20.78805 9.9229,9.95151 12.807,11.99905 23.1738,16.45183 11.6115,4.98745 32.9164,10.25647 39.4815,9.7644 1.8505,-0.1387 3.5012,-1.19583 3.7267,-2.38658 z"
       style="display:inline;opacity:0.32;fill:#ffca06;fill-opacity:1;stroke:#000000;stroke-width:0.908285;stroke-opacity:1;filter:url(#filter26)"
       id="path1-5"
       transform="matrix(1.2378848,0,0,1.3094412,-209.82736,-182.02037)" />
  </g>
</svg>
